<?xml version="1.0" encoding="UTF-8" standalone="no"?>
<!-- Created with Inkscape (http://www.inkscape.org/) -->

<svg
   version="1.1"
   id="svg8601"
   xml:space="preserve"
   width="682.66669"
   height="682.66669"
   viewBox="0 0 682.66669 682.66669"
   xmlns="http://www.w3.org/2000/svg"
   xmlns:svg="http://www.w3.org/2000/svg"><defs
     id="defs8605"><clipPath
       clipPathUnits="userSpaceOnUse"
       id="clipPath8615"><path
         d="M 0,512 H 512 V 0 H 0 Z"
         id="path8613" /></clipPath></defs><g
     id="g8607"
     transform="matrix(1.3333333,0,0,-1.3333333,0,682.66667)"><g
       id="g8609"><g
         id="g8611"
         clip-path="url(#clipPath8615)"><g
           id="g8617"
           transform="translate(504.873,256)"><path
             d="m 0,0 c 0,-137.243 -111.258,-248.501 -248.501,-248.501 -137.244,0 -248.502,111.258 -248.502,248.501 0,137.243 111.258,248.502 248.502,248.502 C -111.258,248.502 0,137.243 0,0"
             style="fill:#e7e7e7;fill-opacity:1;fill-rule:nonzero;stroke:none"
             id="path8619" /></g><g
           id="g8621"
           transform="translate(38.2041,256)"><path
             d="m 0,0 c 0,132.149 103.156,240.187 233.334,248.027 -5.018,0.303 -10.071,0.475 -15.166,0.475 C 80.924,248.502 -30.334,137.244 -30.334,0 c 0,-137.243 111.258,-248.502 248.502,-248.502 5.095,0 10.148,0.172 15.166,0.475 C 103.156,-240.187 0,-132.149 0,0"
             style="fill:#cecece;fill-opacity:1;fill-rule:nonzero;stroke:none"
             id="path8623" /></g><g
           id="g8625"
           transform="translate(467.4472,124.8203)"><path
             d="m 0,0 c -9.622,20.28 -30.278,34.307 -54.218,34.307 -33.129,0 -59.984,-26.856 -59.984,-59.985 0,-23.939 14.026,-44.595 34.306,-54.218 C -47.536,-59.742 -20.153,-32.359 0,0"
             style="fill:#cecece;fill-opacity:1;fill-rule:nonzero;stroke:none"
             id="path8627" /></g><g
           id="g8629"
           transform="translate(383.5781,99.1425)"><path
             d="m 0,0 c 0,27.891 19.037,51.332 44.824,58.048 -4.845,1.264 -9.93,1.936 -15.173,1.936 -33.129,0 -59.984,-26.855 -59.984,-59.984 0,-23.939 14.026,-44.596 34.306,-54.219 5.199,3.239 10.255,6.683 15.187,10.285 C 7.377,-32.982 0,-17.356 0,0"
             style="fill:#c0c0c0;fill-opacity:1;fill-rule:nonzero;stroke:none"
             id="path8631" /></g><g
           id="g8633"
           transform="translate(315.2929,396.6015)"><path
             d="m 0,0 c 0,-33.129 -26.856,-59.985 -59.984,-59.985 -33.129,0 -59.986,26.856 -59.986,59.985 0,33.128 26.857,59.984 59.986,59.984 C -26.856,59.984 0,33.128 0,0"
             style="fill:#cecece;fill-opacity:1;fill-rule:nonzero;stroke:none"
             id="path8635" /></g><g
           id="g8637"
           transform="translate(225.6572,396.6015)"><path
             d="m 0,0 c 0,27.888 19.033,51.327 44.817,58.046 -4.844,1.263 -9.925,1.938 -15.166,1.938 -33.129,0 -59.985,-26.856 -59.985,-59.984 0,-33.129 26.856,-59.985 59.985,-59.985 5.241,0 10.322,0.675 15.166,1.938 C 19.033,-51.328 0,-27.889 0,0"
             style="fill:#c0c0c0;fill-opacity:1;fill-rule:nonzero;stroke:none"
             id="path8639" /></g><g
           id="g8641"
           transform="translate(496.6406,319.6162)"><path
             d="m 0,0 c -17.335,65.646 -60.854,120.642 -118.711,153.155 -11.748,-16.532 -18.656,-36.746 -18.656,-58.572 0,-55.908 45.322,-101.23 101.23,-101.23 12.733,0 24.913,2.357 36.137,6.647"
             style="fill:#cecece;fill-opacity:1;fill-rule:nonzero;stroke:none"
             id="path8643" /></g><g
           id="g8645"
           transform="translate(389.6064,414.1992)"><path
             d="M 0,0 C 0,16.013 3.73,31.15 10.351,44.61 3.271,49.631 -4.075,54.301 -11.677,58.572 -23.425,42.039 -30.333,21.826 -30.333,0 c 0,-55.908 45.322,-101.23 101.23,-101.23 5.135,0 10.175,0.4 15.104,1.139 C 37.318,-92.744 0,-50.731 0,0"
             style="fill:#c0c0c0;fill-opacity:1;fill-rule:nonzero;stroke:none"
             id="path8647" /></g><g
           id="g8649"
           transform="translate(435.5195,242.5634)"><path
             d="m 0,0 c 0,-16.564 -13.428,-29.992 -29.992,-29.992 -16.565,0 -29.992,13.428 -29.992,29.992 0,16.564 13.427,29.992 29.992,29.992 C -13.428,29.992 0,16.564 0,0"
             style="fill:#cecece;fill-opacity:1;fill-rule:nonzero;stroke:none"
             id="path8651" /></g><g
           id="g8653"
           transform="translate(405.8681,242.5634)"><path
             d="m 0,0 c 0,11.029 5.957,20.662 14.826,25.872 -4.451,2.615 -9.632,4.121 -15.167,4.121 -16.564,0 -29.992,-13.429 -29.992,-29.993 0,-16.564 13.428,-29.992 29.992,-29.992 5.535,0 10.716,1.506 15.167,4.12 C 5.957,-20.661 0,-11.029 0,0"
             style="fill:#c0c0c0;fill-opacity:1;fill-rule:nonzero;stroke:none"
             id="path8655" /></g><g
           id="g8657"
           transform="translate(297.0732,252.8134)"><path
             d="m 0,0 c 0,-9.952 -8.067,-18.02 -18.02,-18.02 -9.952,0 -18.019,8.068 -18.019,18.02 0,9.952 8.067,18.02 18.019,18.02 C -8.067,18.02 0,9.952 0,0"
             style="fill:#c0c0c0;fill-opacity:1;fill-rule:nonzero;stroke:none"
             id="path8659" /></g><g
           id="g8661"
           transform="translate(306.3994,99.1425)"><path
             d="m 0,0 c 0,-7.552 -6.122,-13.673 -13.673,-13.673 -7.552,0 -13.673,6.121 -13.673,13.673 0,7.551 6.121,13.673 13.673,13.673 C -6.122,13.673 0,7.551 0,0"
             style="fill:#c0c0c0;fill-opacity:1;fill-rule:nonzero;stroke:none"
             id="path8663" /></g><g
           id="g8665"
           transform="translate(504.5019,256)"><path
             d="m 0,0 c 0,-137.243 -111.259,-248.501 -248.502,-248.501 -137.243,0 -248.502,111.258 -248.502,248.501 0,137.243 111.259,248.502 248.502,248.502 C -111.259,248.502 0,137.243 0,0 Z"
             style="fill:none;stroke:#000000;stroke-width:15;stroke-linecap:round;stroke-linejoin:round;stroke-miterlimit:10;stroke-dasharray:none;stroke-opacity:1"
             id="path8667" /></g><g
           id="g8669"
           transform="translate(496.2685,319.6162)"><path
             d="m 0,0 c -17.335,65.646 -60.854,120.642 -118.711,153.155 -11.748,-16.532 -18.656,-36.746 -18.656,-58.572 0,-55.908 45.322,-101.23 101.231,-101.23 12.733,0 24.912,2.357 36.136,6.647 z"
             style="fill:none;stroke:#000000;stroke-width:15;stroke-linecap:round;stroke-linejoin:round;stroke-miterlimit:10;stroke-dasharray:none;stroke-opacity:1"
             id="path8671" /></g><g
           id="g8673"
           transform="translate(435.1474,242.5634)"><path
             d="m 0,0 c 0,-16.564 -13.428,-29.992 -29.992,-29.992 -16.565,0 -29.992,13.428 -29.992,29.992 0,16.564 13.427,29.992 29.992,29.992 C -13.428,29.992 0,16.564 0,0 Z"
             style="fill:none;stroke:#000000;stroke-width:15;stroke-linecap:round;stroke-linejoin:round;stroke-miterlimit:10;stroke-dasharray:none;stroke-opacity:1"
             id="path8675" /></g><g
           id="g8677"
           transform="translate(296.7011,252.8134)"><path
             d="m 0,0 c 0,-9.952 -8.067,-18.02 -18.02,-18.02 -9.952,0 -18.019,8.068 -18.019,18.02 0,9.952 8.067,18.02 18.019,18.02 C -8.067,18.02 0,9.952 0,0 Z"
             style="fill:none;stroke:#000000;stroke-width:15;stroke-linecap:round;stroke-linejoin:round;stroke-miterlimit:10;stroke-dasharray:none;stroke-opacity:1"
             id="path8679" /></g><g
           id="g8681"
           transform="translate(306.0273,99.1425)"><path
             d="m 0,0 c 0,-7.552 -6.121,-13.673 -13.673,-13.673 -7.551,0 -13.673,6.121 -13.673,13.673 0,7.551 6.122,13.673 13.673,13.673 C -6.121,13.673 0,7.551 0,0 Z"
             style="fill:none;stroke:#000000;stroke-width:15;stroke-linecap:round;stroke-linejoin:round;stroke-miterlimit:10;stroke-dasharray:none;stroke-opacity:1"
             id="path8683" /></g><g
           id="g8685"
           transform="translate(392.4736,155.5683)"><path
             d="m 0,0 c -23.093,-8.344 -39.601,-30.454 -39.601,-56.426 0,-23.939 14.027,-44.595 34.307,-54.219 32.359,20.155 59.742,47.538 79.896,79.897 C 67.007,-14.74 52.533,-2.635 35,1.757"
             style="fill:none;stroke:#000000;stroke-width:15;stroke-linecap:round;stroke-linejoin:round;stroke-miterlimit:10;stroke-dasharray:none;stroke-opacity:1"
             id="path8687" /></g><g
           id="g8689"
           transform="translate(311.6552,416.123)"><path
             d="m 0,0 c -8.103,23.541 -30.428,40.463 -56.719,40.463 -33.129,0 -59.984,-26.857 -59.984,-59.984 0,-33.129 26.855,-59.986 59.984,-59.986 27.776,0 51.132,18.882 57.958,44.507"
             style="fill:none;stroke:#000000;stroke-width:15;stroke-linecap:round;stroke-linejoin:round;stroke-miterlimit:10;stroke-dasharray:none;stroke-opacity:1"
             id="path8691" /></g></g></g></g></svg>
